<svg width="54.000061" height="36.000061" viewBox="0 0 54.0001 36.0001" fill="none" xmlns="http://www.w3.org/2000/svg" xmlns:xlink="http://www.w3.org/1999/xlink">
	<desc>
			Created with Pixso.
	</desc>
	<defs/>
	<path id="Vector" d="M35.34 23.61L24.23 4.53L32.21 0L46.02 23.61L35.34 23.61Z" fill="#1A1A1A" fill-opacity="1.000000" fill-rule="nonzero"/>
	<path id="Vector" d="M5.76 20.93L13.74 16.37L17.96 23.61L7.31 23.61L5.76 20.93Z" fill="#1A1A1A" fill-opacity="1.000000" fill-rule="nonzero"/>
	<path id="Vector" d="M21.42 35.78L23.69 35.78L23.69 26.7L21.42 26.7L21.42 35.78Z" fill="#1A1A1A" fill-opacity="1.000000" fill-rule="nonzero"/>
	<path id="Vector" d="M49.87 36C47.33 36 45.8 34.7 45.72 32.87L48.11 32.87C48.11 33.44 48.47 34.28 50.02 34.31C51.05 34.31 51.54 33.71 51.54 33.26C51.48 32.55 50.57 32.48 49.6 32.33C48.63 32.18 47.8 32.01 47.21 31.7C46.44 31.31 45.93 30.47 45.93 29.52C45.93 27.89 47.35 26.61 49.72 26.61C52.02 26.61 53.48 27.8 53.63 29.58L51.32 29.58C51.3 29.1 51.21 28.34 49.85 28.34C48.93 28.34 48.32 28.53 48.27 29.16C48.27 30.09 50.18 30.03 51.66 30.41C53.09 30.77 54 31.65 54 32.87C54 35.13 52.15 36 49.87 36Z" fill="#1A1A1A" fill-opacity="1.000000" fill-rule="nonzero"/>
	<path id="Vector" d="M15.11 12.83L23.09 8.28L32.04 23.61L23.69 23.61L23.69 25.85L21.42 25.85L21.42 23.6L15.11 12.83Z" fill="#1A1A1A" fill-opacity="1.000000" fill-rule="nonzero"/>
	<path id="Vector" d="M15.32 36C12.68 36 10.53 33.86 10.53 31.28C10.53 28.67 12.68 26.61 15.32 26.61C16.32 26.61 17.23 26.87 18.02 27.41L18.02 23.61L20.29 23.61L20.29 35.78L18.02 35.78L18.02 35.18C17.23 35.69 16.32 36 15.32 36ZM12.71 31.28C12.71 32.69 13.93 33.86 15.38 33.86C16.8 33.86 18.02 32.69 18.02 31.28C18.02 29.87 16.8 28.67 15.38 28.67C13.93 28.67 12.71 29.87 12.71 31.28Z" fill="#1A1A1A" fill-opacity="1.000000" fill-rule="nonzero"/>
	<path id="Vector" d="M32.1 23.61L34.34 23.61L34.34 35.78L32.1 35.78L32.1 35.18C31.33 35.69 30.4 36 29.36 36C26.75 36 24.61 33.86 24.61 31.28C24.61 28.67 26.75 26.61 29.36 26.61C30.4 26.61 31.3 26.87 32.1 27.41L32.1 23.61ZM26.81 31.28C26.81 32.69 28.03 33.86 29.43 33.86C30.88 33.86 32.1 32.69 32.1 31.28C32.1 29.87 30.88 28.67 29.43 28.67C28.03 28.67 26.81 29.87 26.81 31.28Z" fill="#1A1A1A" fill-opacity="1.000000" fill-rule="nonzero"/>
	<path id="Vector" d="M39.86 36C37.26 36 35.1 33.86 35.1 31.28C35.1 28.67 37.26 26.61 39.86 26.61C40.86 26.61 41.8 26.87 42.56 27.41L42.56 26.69L44.83 26.69L44.83 35.78L42.56 35.78L42.56 35.18C41.8 35.69 40.89 36 39.86 36ZM37.31 31.28C37.31 32.69 38.53 33.86 39.95 33.86C41.37 33.86 42.56 32.69 42.56 31.28C42.56 29.87 41.37 28.67 39.95 28.67C38.53 28.67 37.31 29.87 37.31 31.28Z" fill="#1A1A1A" fill-opacity="1.000000" fill-rule="nonzero"/>
	<path id="Vector" d="M2.18 31.28C2.18 32.69 3.4 33.86 4.82 33.86C6.28 33.86 7.5 32.69 7.5 31.28C7.5 29.87 6.28 28.67 4.82 28.67C3.4 28.67 2.18 29.87 2.18 31.28ZM4.76 36C2.15 36 0 33.86 0 31.28C0 28.67 2.15 26.61 4.76 26.61C5.76 26.61 6.7 26.87 7.5 27.41L7.5 26.69L9.74 26.69L9.74 35.78L7.5 35.78L7.5 35.18C6.73 35.69 5.79 36 4.76 36Z" fill="#1A1A1A" fill-opacity="1.000000" fill-rule="nonzero"/>
</svg>
