<svg width="24.000000" height="24.000000" viewBox="0 0 24 24" fill="none" xmlns="http://www.w3.org/2000/svg" xmlns:xlink="http://www.w3.org/1999/xlink">
	<desc>
			Created with Pixso.
	</desc>
	<defs>
		<clipPath id="clip15_1007">
			<rect id="lucide/arrow-left" rx="0.000000" width="23.000000" height="23.000000" transform="translate(0.500000 0.500000)" fill="white" fill-opacity="0"/>
		</clipPath>
	</defs>
	<rect id="lucide/arrow-left" rx="0.000000" width="23.000000" height="23.000000" transform="translate(0.500000 0.500000)" fill="#FFFFFF" fill-opacity="0"/>
	<g clip-path="url(#clip15_1007)">
		<path id="Vector (Stroke)" d="M12.53 4.46C12.82 4.76 12.82 5.23 12.53 5.53L6.81 11.25L19 11.25C19.41 11.25 19.75 11.58 19.75 12C19.75 12.41 19.41 12.75 19 12.75L6.81 12.75L12.53 18.46C12.82 18.76 12.82 19.23 12.53 19.53C12.23 19.82 11.76 19.82 11.46 19.53L4.46 12.53C4.17 12.23 4.17 11.76 4.46 11.46L11.46 4.46C11.76 4.17 12.23 4.17 12.53 4.46Z" fill="#000000" fill-opacity="1.000000" fill-rule="evenodd"/>
	</g>
</svg>
