<svg width="20.000000" height="20.000000" viewBox="0 0 20 20" fill="none" xmlns="http://www.w3.org/2000/svg" xmlns:xlink="http://www.w3.org/1999/xlink">
	<desc>
			Created with Pixso.
	</desc>
	<defs>
		<clipPath id="clip82_10307">
			<rect id="lucide/x" rx="0.000000" width="19.000000" height="19.000000" transform="translate(0.500000 0.500000)" fill="white" fill-opacity="0"/>
		</clipPath>
	</defs>
	<rect id="lucide/x" rx="0.000000" width="19.000000" height="19.000000" transform="translate(0.500000 0.500000)" fill="#FFFFFF" fill-opacity="0"/>
	<g clip-path="url(#clip82_10307)">
		<path id="Vector (Stroke)" d="M4.55 4.55C4.8 4.31 5.19 4.31 5.44 4.55L10 9.11L14.55 4.55C14.8 4.31 15.19 4.31 15.44 4.55C15.68 4.8 15.68 5.19 15.44 5.44L10.88 10L15.44 14.55C15.68 14.8 15.68 15.19 15.44 15.44C15.19 15.68 14.8 15.68 14.55 15.44L10 10.88L5.44 15.44C5.19 15.68 4.8 15.68 4.55 15.44C4.31 15.19 4.31 14.8 4.55 14.55L9.11 10L4.55 5.44C4.31 5.19 4.31 4.8 4.55 4.55Z" fill="#8C8C8C" fill-opacity="1.000000" fill-rule="evenodd"/>
	</g>
</svg>
