<svg width="20.000000" height="20.000000" viewBox="0 0 20 20" fill="none" xmlns="http://www.w3.org/2000/svg" xmlns:xlink="http://www.w3.org/1999/xlink">
	<desc>
			Created with Pixso.
	</desc>
	<defs>
		<clipPath id="clip29_2232">
			<rect id="lucide/funnel" rx="0.000000" width="19.000000" height="19.000000" transform="translate(0.500000 0.500000)" fill="white" fill-opacity="0"/>
		</clipPath>
	</defs>
	<rect id="lucide/funnel" rx="0.000000" width="19.000000" height="19.000000" transform="translate(0.500000 0.500000)" fill="#FFFFFF" fill-opacity="0"/>
	<g clip-path="url(#clip29_2232)">
		<path id="Vector (Stroke)" d="M2.5 1.87L17.5 1.87C17.78 1.87 18.05 1.95 18.29 2.11C18.53 2.26 18.71 2.48 18.83 2.74C18.94 3 18.98 3.28 18.93 3.56C18.89 3.84 18.76 4.1 18.58 4.31L12.56 10.96C12.38 11.15 12.29 11.4 12.29 11.66L12.29 17.49C12.29 17.74 12.22 17.99 12.1 18.2C11.98 18.42 11.81 18.6 11.6 18.74C11.38 18.87 11.14 18.94 10.89 18.95C10.65 18.96 10.4 18.91 10.18 18.8L8.51 17.97C8.27 17.85 8.06 17.66 7.92 17.43C7.78 17.2 7.7 16.93 7.7 16.66L7.7 11.66C7.7 11.4 7.61 11.15 7.43 10.96L1.41 4.31C1.22 4.1 1.1 3.84 1.06 3.56C1.01 3.28 1.05 2.99 1.16 2.74C1.28 2.48 1.46 2.26 1.7 2.11C1.94 1.95 2.21 1.87 2.5 1.87ZM2.5 3.12C2.45 3.12 2.42 3.13 2.38 3.15C2.35 3.18 2.32 3.21 2.3 3.24C2.29 3.28 2.28 3.32 2.29 3.36C2.3 3.4 2.31 3.44 2.34 3.47L8.36 10.12C8.74 10.55 8.95 11.09 8.95 11.66L8.95 16.66C8.95 16.7 8.96 16.74 8.98 16.77C9 16.8 9.03 16.83 9.07 16.85L10.74 17.68L2.5 3.12ZM2.5 3.12L17.49 3.12C17.53 3.12 17.57 3.13 17.61 3.15C17.64 3.18 17.67 3.21 17.68 3.24C17.7 3.28 17.71 3.32 17.7 3.36C17.69 3.4 17.67 3.44 17.65 3.47L11.63 10.12C11.25 10.55 11.04 11.09 11.04 11.66L11.04 17.5C11.04 17.53 11.03 17.57 11.01 17.6C10.99 17.63 10.97 17.65 10.94 17.67C10.91 17.69 10.87 17.7 10.84 17.7C10.8 17.71 10.77 17.7 10.74 17.68L2.5 3.12Z" fill="#000000" fill-opacity="1.000000" fill-rule="evenodd"/>
	</g>
</svg>
