<svg width="16.000000" height="16.000000" viewBox="0 0 16 16" fill="none" xmlns="http://www.w3.org/2000/svg" xmlns:xlink="http://www.w3.org/1999/xlink">
	<desc>
			Created with Pixso.
	</desc>
	<defs>
		<clipPath id="clip72_10241">
			<rect id="lucide/plus" rx="0.000000" width="15.000000" height="15.000000" transform="translate(0.500000 0.500000)" fill="white" fill-opacity="0"/>
		</clipPath>
	</defs>
	<rect id="lucide/plus" rx="0.000000" width="15.000000" height="15.000000" transform="translate(0.500000 0.500000)" fill="#FFFFFF" fill-opacity="0"/>
	<g clip-path="url(#clip72_10241)">
		<path id="Vector (Stroke)" d="M8 2.83C8.27 2.83 8.5 3.05 8.5 3.33L8.5 7.5L12.66 7.5C12.94 7.5 13.16 7.72 13.16 8C13.16 8.27 12.94 8.5 12.66 8.5L8.5 8.5L8.5 12.66C8.5 12.94 8.27 13.16 8 13.16C7.72 13.16 7.5 12.94 7.5 12.66L7.5 8.5L3.33 8.5C3.05 8.5 2.83 8.27 2.83 8C2.83 7.72 3.05 7.5 3.33 7.5L7.5 7.5L7.5 3.33C7.5 3.05 7.72 2.83 8 2.83Z" fill="#1A1A1A" fill-opacity="1.000000" fill-rule="evenodd"/>
	</g>
</svg>
