<svg width="24.000000" height="24.000000" viewBox="0 0 24 24" fill="none" xmlns="http://www.w3.org/2000/svg" xmlns:xlink="http://www.w3.org/1999/xlink">
	<desc>
			Created with Pixso.
	</desc>
	<defs>
		<clipPath id="clip4_5470">
			<rect id="lucide/shopping-bag" rx="0.000000" width="23.000000" height="23.000000" transform="translate(0.500000 0.500000)" fill="white" fill-opacity="0"/>
		</clipPath>
	</defs>
	<rect id="lucide/shopping-bag" rx="0.000000" width="23.000000" height="23.000000" transform="translate(0.500000 0.500000)" fill="#FFFFFF" fill-opacity="0"/>
	<g clip-path="url(#clip4_5470)">
		<path id="Vector (Stroke)" d="M5.39 1.54C5.54 1.36 5.76 1.25 6 1.25L18 1.25C18.23 1.25 18.45 1.36 18.6 1.54L21.6 5.54C21.69 5.67 21.75 5.83 21.75 6L21.75 20C21.75 20.72 21.46 21.42 20.94 21.94C20.42 22.46 19.72 22.75 19 22.75L5 22.75C4.27 22.75 3.57 22.46 3.05 21.94C2.53 21.42 2.25 20.72 2.25 20L2.25 6C2.25 5.83 2.3 5.67 2.39 5.54L5.39 1.54ZM6.37 2.75L4.5 5.25L19.5 5.25L17.62 2.75L6.37 2.75ZM20.25 6.75L3.75 6.75L3.75 20C3.75 20.33 3.88 20.64 4.11 20.88C4.35 21.11 4.66 21.25 5 21.25L19 21.25C19.33 21.25 19.64 21.11 19.88 20.88C20.11 20.64 20.25 20.33 20.25 20L20.25 6.75ZM8 9.25C8.41 9.25 8.75 9.58 8.75 10C8.75 10.86 9.09 11.68 9.7 12.29C10.31 12.9 11.13 13.25 12 13.25C12.86 13.25 13.68 12.9 14.29 12.29C14.9 11.68 15.25 10.86 15.25 10C15.25 9.58 15.58 9.25 16 9.25C16.41 9.25 16.75 9.58 16.75 10C16.75 11.25 16.24 12.46 15.35 13.35C14.46 14.24 13.25 14.75 12 14.75C10.74 14.75 9.53 14.24 8.64 13.35C7.75 12.46 7.25 11.25 7.25 10C7.25 9.58 7.58 9.25 8 9.25Z" fill="#FFFFFF" fill-opacity="1.000000" fill-rule="evenodd"/>
	</g>
</svg>
