<svg width="20.000000" height="20.000000" viewBox="0 0 20 20" fill="none" xmlns="http://www.w3.org/2000/svg" xmlns:xlink="http://www.w3.org/1999/xlink">
	<desc>
			Created with Pixso.
	</desc>
	<defs>
		<clipPath id="clip29_2233">
			<rect id="lucide/user-round" rx="0.000000" width="19.000000" height="19.000000" transform="translate(0.500000 0.500000)" fill="white" fill-opacity="0"/>
		</clipPath>
	</defs>
	<rect id="lucide/user-round" rx="0.000000" width="19.000000" height="19.000000" transform="translate(0.500000 0.500000)" fill="#FFFFFF" fill-opacity="0"/>
	<g clip-path="url(#clip29_2233)">
		<path id="Vector (Stroke)" d="M10 3.12C8.04 3.12 6.45 4.71 6.45 6.66C6.45 8.62 8.04 10.2 10 10.2C11.95 10.2 13.54 8.62 13.54 6.66C13.54 4.71 11.95 3.12 10 3.12ZM12.6 10.68C13.92 9.83 14.79 8.35 14.79 6.66C14.79 4.02 12.64 1.87 10 1.87C7.35 1.87 5.2 4.02 5.2 6.66C5.2 8.35 6.07 9.83 7.39 10.68C6.44 11.05 5.57 11.61 4.84 12.34C3.47 13.71 2.7 15.56 2.7 17.5C2.7 17.84 2.98 18.12 3.33 18.12C3.67 18.12 3.95 17.84 3.95 17.5C3.95 15.89 4.59 14.36 5.72 13.22C6.86 12.09 8.39 11.45 10 11.45C11.6 11.45 13.13 12.09 14.27 13.22C15.4 14.36 16.04 15.89 16.04 17.5C16.04 17.84 16.32 18.12 16.66 18.12C17.01 18.12 17.29 17.84 17.29 17.5C17.29 15.56 16.52 13.71 15.15 12.34C14.42 11.61 13.55 11.05 12.6 10.68Z" fill="#000000" fill-opacity="1.000000" fill-rule="evenodd"/>
	</g>
</svg>
